<svg width="25" height="24" viewBox="0 0 25 24" fill="none" xmlns="http://www.w3.org/2000/svg">
<path d="M16.4 14C17.6885 14.0001 18.9272 14.4975 19.8578 15.3887C20.7884 16.2798 21.3391 17.4958 21.395 18.783L21.4 19V20C21.4002 20.5046 21.2096 20.9906 20.8665 21.3605C20.5234 21.7305 20.0532 21.9572 19.55 21.995L19.4 22H5.40002C4.89545 22.0002 4.40946 21.8096 4.03948 21.4665C3.6695 21.1234 3.44287 20.6532 3.40502 20.15L3.40002 20V19C3.4001 17.7115 3.89757 16.4728 4.78868 15.5422C5.6798 14.6116 6.89578 14.0609 8.18302 14.005L8.40002 14H16.4ZM12.4 2C13.7261 2 14.9979 2.52678 15.9356 3.46447C16.8732 4.40215 17.4 5.67392 17.4 7C17.4 8.32608 16.8732 9.59785 15.9356 10.5355C14.9979 11.4732 13.7261 12 12.4 12C11.0739 12 9.80217 11.4732 8.86449 10.5355C7.92681 9.59785 7.40002 8.32608 7.40002 7C7.40002 5.67392 7.92681 4.40215 8.86449 3.46447C9.80217 2.52678 11.0739 2 12.4 2Z" fill="#AAAAAA"/>
</svg>
