<svg width="20" height="20" viewBox="0 0 20 20" fill="none" xmlns="http://www.w3.org/2000/svg">
<path fill-rule="evenodd" clip-rule="evenodd" d="M6.05375 13.68L5.81125 16.5987C5.80681 16.6496 5.81775 16.7007 5.84266 16.7453C5.86758 16.7899 5.90531 16.826 5.95097 16.8489C5.99664 16.8718 6.04813 16.8804 6.09877 16.8737C6.14941 16.867 6.19687 16.8452 6.235 16.8112L8.9975 14.3562L9.73375 14.3725L10 14.375C12.1188 14.375 13.8588 13.825 15.025 12.9037C16.1375 12.0262 16.875 10.7037 16.875 8.75C16.875 6.79625 16.1375 5.475 15.025 4.59625C13.8588 3.675 12.1188 3.125 10 3.125C7.88125 3.125 6.14125 3.675 4.975 4.59625C3.8625 5.475 3.125 6.79625 3.125 8.75C3.125 10.81 3.945 12.1775 5.185 13.06L6.05375 13.68ZM7.48 18.2112L9.6925 16.2462C9.79333 16.2487 9.89583 16.25 10 16.25C14.8325 16.25 18.75 13.75 18.75 8.75C18.75 3.75 14.8325 1.25 10 1.25C5.1675 1.25 1.25 3.75 1.25 8.75C1.25 11.3962 2.3475 13.3425 4.09625 14.5875L3.9425 16.4425C3.90722 16.8667 3.99984 17.2917 4.2084 17.6627C4.41696 18.0338 4.7319 18.3338 5.11261 18.5242C5.49331 18.7145 5.92231 18.7864 6.34428 18.7307C6.76625 18.6749 7.16183 18.494 7.48 18.2112Z" fill="#505050"/>
</svg>
