<svg width="20" height="20" viewBox="0 0 20 20" fill="none" xmlns="http://www.w3.org/2000/svg">
<path fill-rule="evenodd" clip-rule="evenodd" d="M10 16.25C14.8325 16.25 18.75 13.75 18.75 8.75C18.75 3.75 14.8325 1.25 10 1.25C5.1675 1.25 1.25 3.75 1.25 8.75C1.25 11.45 2.3925 13.4212 4.205 14.6625L4.3175 17.3637C4.32857 17.6279 4.41182 17.8839 4.55819 18.104C4.70457 18.3241 4.90848 18.4999 5.14776 18.6123C5.38704 18.7247 5.65254 18.7693 5.91541 18.7413C6.17827 18.7134 6.42845 18.6139 6.63875 18.4537L9.54125 16.2413C9.69375 16.2471 9.84667 16.25 10 16.25Z" fill="#505050"/>
</svg>
