<svg width="25" height="24" viewBox="0 0 25 24" fill="none" xmlns="http://www.w3.org/2000/svg">
<path d="M20.2 19V10.5C20.2 10.3448 20.1638 10.1916 20.0944 10.0528C20.025 9.91393 19.9241 9.79315 19.8 9.7L12.8 4.45C12.6269 4.32018 12.4163 4.25 12.2 4.25C11.9836 4.25 11.773 4.32018 11.6 4.45L4.59995 9.7C4.47576 9.79315 4.37495 9.91393 4.30552 10.0528C4.2361 10.1916 4.19995 10.3448 4.19995 10.5V19C4.19995 19.2652 4.30531 19.5196 4.49284 19.7071C4.68038 19.8946 4.93473 20 5.19995 20H9.19995C9.46517 20 9.71952 19.8946 9.90706 19.7071C10.0946 19.5196 10.2 19.2652 10.2 19V16C10.2 15.7348 10.3053 15.4804 10.4928 15.2929C10.6804 15.1054 10.9347 15 11.2 15H13.2C13.4652 15 13.7195 15.1054 13.9071 15.2929C14.0946 15.4804 14.2 15.7348 14.2 16V19C14.2 19.2652 14.3053 19.5196 14.4928 19.7071C14.6804 19.8946 14.9347 20 15.2 20H19.2C19.4652 20 19.7195 19.8946 19.9071 19.7071C20.0946 19.5196 20.2 19.2652 20.2 19Z" fill="#D52B00" stroke="#D52B00" stroke-width="2" stroke-linecap="round" stroke-linejoin="round"/>
</svg>
