<svg width="25" height="24" viewBox="0 0 25 24" fill="none" xmlns="http://www.w3.org/2000/svg">
<path d="M20.2002 19V10.5C20.2002 10.3448 20.164 10.1916 20.0946 10.0528C20.0252 9.91393 19.9244 9.79315 19.8002 9.7L12.8002 4.45C12.6271 4.32018 12.4166 4.25 12.2002 4.25C11.9838 4.25 11.7733 4.32018 11.6002 4.45L4.6002 9.7C4.476 9.79315 4.3752 9.91393 4.30577 10.0528C4.23634 10.1916 4.2002 10.3448 4.2002 10.5V19C4.2002 19.2652 4.30555 19.5196 4.49309 19.7071C4.68063 19.8946 4.93498 20 5.2002 20H9.2002C9.46541 20 9.71977 19.8946 9.9073 19.7071C10.0948 19.5196 10.2002 19.2652 10.2002 19V16C10.2002 15.7348 10.3056 15.4804 10.4931 15.2929C10.6806 15.1054 10.935 15 11.2002 15H13.2002C13.4654 15 13.7198 15.1054 13.9073 15.2929C14.0948 15.4804 14.2002 15.7348 14.2002 16V19C14.2002 19.2652 14.3056 19.5196 14.4931 19.7071C14.6806 19.8946 14.935 20 15.2002 20H19.2002C19.4654 20 19.7198 19.8946 19.9073 19.7071C20.0948 19.5196 20.2002 19.2652 20.2002 19Z" stroke="#D52B00" stroke-width="2" stroke-linecap="round" stroke-linejoin="round"/>
</svg>
