<svg width="32" height="32" viewBox="0 0 32 32" fill="none" xmlns="http://www.w3.org/2000/svg">
<path d="M3.99996 10.6666H13.3333C14.1244 10.6666 14.8978 10.432 15.5556 9.99251C16.2134 9.55298 16.7261 8.92827 17.0288 8.19736C17.3316 7.46646 17.4108 6.66219 17.2564 5.88627C17.1021 5.11034 16.7211 4.39761 16.1617 3.8382C15.6023 3.27879 14.8896 2.89783 14.1137 2.74349C13.3377 2.58915 12.5335 2.66836 11.8026 2.97111C11.0717 3.27386 10.4469 3.78655 10.0074 4.44435C9.56789 5.10214 9.33329 5.8755 9.33329 6.66663M5.33329 21.3333H20C20.7911 21.3333 21.5644 21.5679 22.2222 22.0074C22.88 22.4469 23.3927 23.0717 23.6955 23.8026C23.9982 24.5335 24.0774 25.3377 23.9231 26.1137C23.7688 26.8896 23.3878 27.6023 22.8284 28.1617C22.269 28.7211 21.5562 29.1021 20.7803 29.2564C20.0044 29.4108 19.2001 29.3316 18.4692 29.0288C17.7383 28.7261 17.1136 28.2134 16.6741 27.5556C16.2346 26.8978 16 26.1244 16 25.3333M2.66663 16H25.3333C26.1244 16 26.8978 15.7654 27.5556 15.3258C28.2134 14.8863 28.7261 14.2616 29.0288 13.5307C29.3316 12.7998 29.4108 11.9955 29.2564 11.2196C29.1021 10.4437 28.7211 9.73094 28.1617 9.17153C27.6023 8.61212 26.8896 8.23116 26.1137 8.07682C25.3377 7.92248 24.5335 8.00169 23.8026 8.30444C23.0717 8.60719 22.4469 9.11988 22.0074 9.77768C21.5679 10.4355 21.3333 11.2088 21.3333 12" stroke="#D52B00" stroke-width="2" stroke-linecap="round" stroke-linejoin="round"/>
</svg>
