<svg width="25" height="24" viewBox="0 0 25 24" fill="none" xmlns="http://www.w3.org/2000/svg">
<path d="M20.8 18C21.0549 18.0003 21.3001 18.0979 21.4854 18.2728C21.6708 18.4478 21.7823 18.687 21.7972 18.9414C21.8122 19.1958 21.7294 19.4464 21.5658 19.6418C21.4022 19.8373 21.1701 19.9629 20.917 19.993L20.8 20H4.80005C4.54517 19.9997 4.30002 19.9021 4.11468 19.7272C3.92934 19.5522 3.81781 19.313 3.80288 19.0586C3.78794 18.8042 3.87072 18.5536 4.03431 18.3582C4.1979 18.1627 4.42995 18.0371 4.68305 18.007L4.80005 18H20.8ZM20.8 11C21.0653 11 21.3196 11.1054 21.5072 11.2929C21.6947 11.4804 21.8 11.7348 21.8 12C21.8 12.2652 21.6947 12.5196 21.5072 12.7071C21.3196 12.8946 21.0653 13 20.8 13H4.80005C4.53483 13 4.28048 12.8946 4.09294 12.7071C3.90541 12.5196 3.80005 12.2652 3.80005 12C3.80005 11.7348 3.90541 11.4804 4.09294 11.2929C4.28048 11.1054 4.53483 11 4.80005 11H20.8ZM20.8 4C21.0653 4 21.3196 4.10536 21.5072 4.29289C21.6947 4.48043 21.8 4.73478 21.8 5C21.8 5.26522 21.6947 5.51957 21.5072 5.70711C21.3196 5.89464 21.0653 6 20.8 6H4.80005C4.53483 6 4.28048 5.89464 4.09294 5.70711C3.90541 5.51957 3.80005 5.26522 3.80005 5C3.80005 4.73478 3.90541 4.48043 4.09294 4.29289C4.28048 4.10536 4.53483 4 4.80005 4H20.8Z" fill="#D52B00"/>
</svg>
