<svg width="25" height="24" viewBox="0 0 25 24" fill="none" xmlns="http://www.w3.org/2000/svg">
<path d="M20.8 17.5C21.1853 17.5002 21.5556 17.6486 21.8344 17.9144C22.1132 18.1802 22.2791 18.5431 22.2976 18.9279C22.3161 19.3127 22.1859 19.6898 21.9339 19.9812C21.6819 20.2726 21.3275 20.4558 20.944 20.493L20.8 20.5H4.80005C4.41483 20.4998 4.04445 20.3514 3.76566 20.0856C3.48687 19.8198 3.32104 19.4569 3.30252 19.0721C3.28401 18.6873 3.41424 18.3102 3.66622 18.0188C3.91821 17.7274 4.27263 17.5442 4.65605 17.507L4.80005 17.5H20.8ZM20.8 10.5C21.1979 10.5 21.5794 10.658 21.8607 10.9393C22.142 11.2206 22.3 11.6022 22.3 12C22.3 12.3978 22.142 12.7794 21.8607 13.0607C21.5794 13.342 21.1979 13.5 20.8 13.5H4.80005C4.40222 13.5 4.02069 13.342 3.73939 13.0607C3.45808 12.7794 3.30005 12.3978 3.30005 12C3.30005 11.6022 3.45808 11.2206 3.73939 10.9393C4.02069 10.658 4.40222 10.5 4.80005 10.5H20.8ZM20.8 3.5C21.1979 3.5 21.5794 3.65804 21.8607 3.93934C22.142 4.22064 22.3 4.60218 22.3 5C22.3 5.39782 22.142 5.77936 21.8607 6.06066C21.5794 6.34196 21.1979 6.5 20.8 6.5H4.80005C4.40222 6.5 4.02069 6.34196 3.73939 6.06066C3.45808 5.77936 3.30005 5.39782 3.30005 5C3.30005 4.60218 3.45808 4.22064 3.73939 3.93934C4.02069 3.65804 4.40222 3.5 4.80005 3.5H20.8Z" fill="#D52B00"/>
</svg>
