<svg width="24" height="24" viewBox="0 0 24 24" fill="none" xmlns="http://www.w3.org/2000/svg">
<path d="M21.9244 10.3575L6.16875 1.36687C5.83656 1.18078 5.45558 1.10025 5.0765 1.13597C4.69741 1.1717 4.33819 1.32199 4.04661 1.56686C3.75502 1.81173 3.5449 2.13956 3.44419 2.50677C3.34348 2.87397 3.35695 3.26313 3.48282 3.62249L6.31219 12L3.48282 20.3775C3.38334 20.6601 3.35305 20.9625 3.39447 21.2592C3.43589 21.5559 3.54782 21.8384 3.72088 22.083C3.89394 22.3276 4.12309 22.5271 4.38914 22.6649C4.65519 22.8027 4.95039 22.8748 5.25 22.875C5.5722 22.8743 5.88885 22.791 6.16969 22.6331L6.17813 22.6275L21.9281 13.6209C22.2169 13.4575 22.4571 13.2203 22.6243 12.9336C22.7914 12.6469 22.8795 12.3211 22.8795 11.9892C22.8795 11.6574 22.7914 11.3315 22.6243 11.0448C22.4571 10.7581 22.2169 10.521 21.9281 10.3575H21.9244ZM5.92407 20.1806L8.30719 13.125H13.5C13.7984 13.125 14.0845 13.0065 14.2955 12.7955C14.5065 12.5845 14.625 12.2984 14.625 12C14.625 11.7016 14.5065 11.4155 14.2955 11.2045C14.0845 10.9935 13.7984 10.875 13.5 10.875H8.30719L5.92313 3.81749L20.2444 11.9897L5.92407 20.1806Z" fill="#D52B00"/>
</svg>
