<svg width="24" height="24" viewBox="0 0 24 24" fill="none" xmlns="http://www.w3.org/2000/svg">
<path fill-rule="evenodd" clip-rule="evenodd" d="M4.93816 10C4.93816 8.14348 5.67566 6.36301 6.98842 5.05025C8.30117 3.7375 10.0816 3 11.9382 3C13.7947 3 15.5752 3.7375 16.8879 5.05025C18.2007 6.36301 18.9382 8.14348 18.9382 10V13.764L20.7602 17.408C20.844 17.5757 20.8836 17.7621 20.8752 17.9494C20.8668 18.1368 20.8106 18.3188 20.712 18.4783C20.6134 18.6379 20.4757 18.7695 20.3119 18.8608C20.1481 18.9521 19.9637 19 19.7762 19H15.8122C15.5897 19.8582 15.0886 20.6183 14.3874 21.1609C13.6863 21.7035 12.8248 21.9979 11.9382 21.9979C11.0516 21.9979 10.1901 21.7035 9.4889 21.1609C8.78773 20.6183 8.2866 19.8582 8.06416 19H4.10016C3.91264 19 3.72822 18.9521 3.56443 18.8608C3.40064 18.7695 3.2629 18.6379 3.16431 18.4783C3.06572 18.3188 3.00954 18.1368 3.00111 17.9494C2.99268 17.7621 3.03229 17.5757 3.11616 17.408L4.93816 13.764V10ZM10.2062 19C10.3817 19.304 10.6342 19.5565 10.9382 19.732C11.2422 19.9075 11.5871 19.9999 11.9382 19.9999C12.2892 19.9999 12.6341 19.9075 12.9381 19.732C13.2421 19.5565 13.4946 19.304 13.6702 19H10.2062ZM11.9382 5C10.6121 5 9.34031 5.52678 8.40263 6.46447C7.46495 7.40215 6.93816 8.67392 6.93816 10V13.764C6.93814 14.0743 6.8659 14.3804 6.72716 14.658L5.55716 17H18.3202L17.1502 14.658C17.0111 14.3805 16.9385 14.0744 16.9382 13.764V10C16.9382 8.67392 16.4114 7.40215 15.4737 6.46447C14.536 5.52678 13.2642 5 11.9382 5Z" fill="#D52B00"/>
</svg>
