<svg width="25" height="24" viewBox="0 0 25 24" fill="none" xmlns="http://www.w3.org/2000/svg">
<path d="M10.6 2C9.34854 2.00067 8.11472 2.29492 6.99767 2.85909C5.88063 3.42326 4.91151 4.24163 4.16823 5.24841C3.42494 6.25519 2.92821 7.42231 2.71796 8.65595C2.50771 9.8896 2.58981 11.1554 2.95765 12.3515C3.3255 13.5477 3.96883 14.6408 4.83594 15.5432C5.70306 16.4455 6.76976 17.1318 7.95033 17.547C9.13089 17.9621 10.3924 18.0945 11.6334 17.9335C12.8745 17.7725 14.0604 17.3226 15.096 16.62L20.04 21.56C20.1773 21.7074 20.3429 21.8256 20.5269 21.9076C20.7109 21.9895 20.9095 22.0336 21.1109 22.0372C21.3123 22.0407 21.5124 22.0037 21.6992 21.9282C21.8859 21.8528 22.0556 21.7405 22.198 21.5981C22.3405 21.4556 22.4528 21.286 22.5282 21.0992C22.6037 20.9124 22.6407 20.7124 22.6372 20.511C22.6336 20.3095 22.5895 20.1109 22.5075 19.9269C22.4256 19.7429 22.3073 19.5773 22.16 19.44L17.22 14.496C18.0372 13.2932 18.5112 11.8903 18.5909 10.4383C18.6705 8.98624 18.3529 7.53995 17.6721 6.25492C16.9914 4.96989 15.9732 3.89473 14.7271 3.14503C13.481 2.39534 12.0542 1.99947 10.6 2ZM5.59997 10C5.59997 8.67392 6.12676 7.40215 7.06444 6.46447C8.00212 5.52678 9.27389 5 10.6 5C11.9261 5 13.1978 5.52678 14.1355 6.46447C15.0732 7.40215 15.6 8.67392 15.6 10C15.6 11.3261 15.0732 12.5979 14.1355 13.5355C13.1978 14.4732 11.9261 15 10.6 15C9.27389 15 8.00212 14.4732 7.06444 13.5355C6.12676 12.5979 5.59997 11.3261 5.59997 10Z" fill="#D52B00"/>
</svg>
