<svg width="25" height="24" viewBox="0 0 25 24" fill="none" xmlns="http://www.w3.org/2000/svg">
<path d="M10.5997 2C9.32651 1.99986 8.07164 2.30363 6.93943 2.88604C5.80722 3.46845 4.83038 4.31269 4.09009 5.34858C3.3498 6.38448 2.86746 7.58211 2.68314 8.84192C2.49883 10.1017 2.61788 11.3873 3.03038 12.5919C3.44289 13.7964 4.13695 14.8851 5.05486 15.7675C5.97277 16.6498 7.08803 17.3003 8.30793 17.665C9.52783 18.0296 10.8171 18.0977 12.0687 17.8638C13.3202 17.6299 14.4979 17.1006 15.5037 16.32L20.8917 21.706C20.984 21.8015 21.0943 21.8777 21.2163 21.9301C21.3383 21.9825 21.4696 22.0101 21.6023 22.0113C21.7351 22.0124 21.8668 21.9871 21.9897 21.9368C22.1126 21.8865 22.2242 21.8123 22.3181 21.7184C22.412 21.6245 22.4863 21.5129 22.5366 21.39C22.5868 21.2671 22.6121 21.1354 22.611 21.0026C22.6098 20.8698 22.5822 20.7386 22.5298 20.6166C22.4774 20.4946 22.4012 20.3842 22.3057 20.292L16.9197 14.906C17.8378 13.7235 18.4057 12.307 18.5587 10.8178C18.7118 9.32851 18.4438 7.82619 17.7854 6.48165C17.127 5.1371 16.1045 4.00429 14.8342 3.21203C13.5639 2.41976 12.0968 1.99983 10.5997 2ZM4.59973 10C4.59973 8.4087 5.23187 6.88258 6.35709 5.75736C7.48231 4.63214 9.00843 4 10.5997 4C12.191 4 13.7172 4.63214 14.8424 5.75736C15.9676 6.88258 16.5997 8.4087 16.5997 10C16.5997 11.5913 15.9676 13.1174 14.8424 14.2426C13.7172 15.3679 12.191 16 10.5997 16C9.00843 16 7.48231 15.3679 6.35709 14.2426C5.23187 13.1174 4.59973 11.5913 4.59973 10Z" fill="#D52B00"/>
</svg>
