<svg width="20" height="20" viewBox="0 0 20 20" fill="none" xmlns="http://www.w3.org/2000/svg">
<path d="M13.3257 0.862513C13.8657 0.550931 14.4822 0.397018 15.1053 0.418256C15.7283 0.439494 16.333 0.635032 16.8505 0.982659C17.368 1.33029 17.7776 1.81607 18.0328 2.38484C18.2881 2.9536 18.3787 3.58255 18.2945 4.20024C18.2102 4.81794 17.9544 5.39962 17.5561 5.87923C17.1578 6.35883 16.633 6.71713 16.0413 6.91343C15.4496 7.10973 14.8147 7.13616 14.2087 6.98972C13.6028 6.84329 13.05 6.52985 12.6132 6.08501L7.37991 9.10668C7.46157 9.40279 7.50185 9.70057 7.50074 10C7.50074 10.2983 7.46157 10.5992 7.37991 10.8933L12.6132 13.915C13.1823 13.3379 13.942 12.9878 14.7504 12.9301C15.5588 12.8724 16.3605 13.111 17.0058 13.6014C17.651 14.0918 18.0957 14.8003 18.2565 15.5947C18.4174 16.389 18.2835 17.2147 17.8799 17.9175C17.475 18.6215 16.8269 19.1535 16.0575 19.4134C15.2881 19.6734 14.4502 19.6436 13.7013 19.3294C12.9523 19.0153 12.3438 18.4386 11.99 17.7075C11.6362 16.9765 11.5615 16.1414 11.7799 15.3592L6.54657 12.3367C6.08261 12.8092 5.48851 13.1328 4.83994 13.2664C4.19138 13.4 3.51772 13.3375 2.9048 13.0869C2.29188 12.8363 1.76744 12.4089 1.3983 11.8591C1.02916 11.3094 0.832031 10.6622 0.832031 10C0.832031 9.33783 1.02916 8.69064 1.3983 8.14089C1.76744 7.59114 2.29188 7.16373 2.9048 6.91311C3.51772 6.66248 4.19138 6.6 4.83994 6.73361C5.48851 6.86722 6.08261 7.19088 6.54657 7.66335L11.7799 4.64168C11.5821 3.92952 11.6266 3.17181 11.9065 2.48771C12.1863 1.80361 12.6855 1.23191 13.3257 0.862513ZM16.4357 2.91668C16.3271 2.7256 16.1817 2.5579 16.008 2.42323C15.8343 2.28856 15.6357 2.18959 15.4236 2.132C15.2114 2.07441 14.99 2.05934 14.7721 2.08767C14.5541 2.11601 14.3439 2.18717 14.1535 2.29707C13.9632 2.40698 13.7964 2.55344 13.6629 2.72805C13.5294 2.90265 13.4318 3.10194 13.3756 3.31444C13.3194 3.52693 13.3058 3.74845 13.3356 3.96622C13.3654 4.18399 13.4379 4.39373 13.5491 4.58335C13.7717 4.96302 14.1354 5.23925 14.5609 5.35174C14.9864 5.46424 15.4391 5.40386 15.8202 5.1838C16.2014 4.96374 16.48 4.60186 16.5953 4.17712C16.7106 3.75238 16.6533 3.29928 16.4357 2.91668ZM2.55907 10.4392C2.62662 10.6849 2.74959 10.912 2.91853 11.1028C3.08747 11.2937 3.29789 11.4433 3.53364 11.5401C3.76939 11.637 4.02421 11.6786 4.27852 11.6617C4.53284 11.6447 4.7799 11.5698 5.00074 11.4425C5.27035 11.2867 5.49091 11.0584 5.63741 10.7836C5.78392 10.5088 5.8505 10.1985 5.82962 9.88779C5.80875 9.57709 5.70124 9.27845 5.51928 9.02572C5.33733 8.773 5.08822 8.57631 4.80018 8.45795C4.51214 8.33959 4.19671 8.3043 3.88963 8.35607C3.58256 8.40784 3.29613 8.5446 3.06282 8.75086C2.82951 8.95711 2.65865 9.2246 2.56962 9.52301C2.48058 9.82142 2.47693 10.1388 2.55907 10.4392ZM15.8257 14.8075C15.6361 14.6964 15.4264 14.6238 15.2086 14.594C14.9908 14.5642 14.7693 14.5778 14.5568 14.634C14.3443 14.6902 14.145 14.7879 13.9704 14.9214C13.7958 15.0549 13.6494 15.2216 13.5395 15.412C13.4296 15.6023 13.3584 15.8125 13.3301 16.0305C13.3017 16.2485 13.3168 16.4699 13.3744 16.682C13.432 16.8941 13.531 17.0928 13.6656 17.2665C13.8003 17.4402 13.968 17.5855 14.1591 17.6942C14.5417 17.9117 14.9948 17.9691 15.4195 17.8538C15.8443 17.7384 16.2061 17.4598 16.4262 17.0787C16.6463 16.6975 16.7066 16.2448 16.5941 15.8193C16.4816 15.3938 16.2054 15.0301 15.8257 14.8075Z" fill="#505050"/>
</svg>
