<svg width="25" height="24" viewBox="0 0 25 24" fill="none" xmlns="http://www.w3.org/2000/svg">
<path fill-rule="evenodd" clip-rule="evenodd" d="M16.3999 14C17.6884 14.0001 18.9271 14.4975 19.8577 15.3887C20.7883 16.2798 21.339 17.4958 21.3949 18.783L21.3999 19V20C21.4001 20.5046 21.2095 20.9906 20.8664 21.3605C20.5233 21.7305 20.0531 21.9572 19.5499 21.995L19.3999 22H5.3999C4.89533 22.0002 4.40934 21.8096 4.03935 21.4665C3.66937 21.1234 3.44275 20.6532 3.4049 20.15L3.3999 20V19C3.39998 17.7115 3.89744 16.4728 4.78856 15.5422C5.67968 14.6116 6.89565 14.0609 8.1829 14.005L8.3999 14H16.3999ZM16.3999 16H8.3999C7.63469 16 6.89839 16.2923 6.34164 16.8173C5.7849 17.3422 5.44979 18.0601 5.4049 18.824L5.3999 19V20H19.3999V19C19.3999 18.2348 19.1076 17.4985 18.5826 16.9417C18.0577 16.385 17.3398 16.0499 16.5759 16.005L16.3999 16ZM12.3999 2C13.726 2 14.9978 2.52678 15.9354 3.46447C16.8731 4.40215 17.3999 5.67392 17.3999 7C17.3999 8.32608 16.8731 9.59785 15.9354 10.5355C14.9978 11.4732 13.726 12 12.3999 12C11.0738 12 9.80205 11.4732 8.86437 10.5355C7.92669 9.59785 7.3999 8.32608 7.3999 7C7.3999 5.67392 7.92669 4.40215 8.86437 3.46447C9.80205 2.52678 11.0738 2 12.3999 2ZM12.3999 4C12.0059 4 11.6158 4.0776 11.2519 4.22836C10.8879 4.37913 10.5572 4.6001 10.2786 4.87868C10 5.15726 9.77903 5.48797 9.62826 5.85195C9.4775 6.21593 9.3999 6.60603 9.3999 7C9.3999 7.39397 9.4775 7.78407 9.62826 8.14805C9.77903 8.51203 10 8.84274 10.2786 9.12132C10.5572 9.3999 10.8879 9.62087 11.2519 9.77164C11.6158 9.9224 12.0059 10 12.3999 10C13.1956 10 13.9586 9.68393 14.5212 9.12132C15.0838 8.55871 15.3999 7.79565 15.3999 7C15.3999 6.20435 15.0838 5.44129 14.5212 4.87868C13.9586 4.31607 13.1956 4 12.3999 4Z" fill="#D52B00"/>
</svg>
