<svg width="25" height="24" viewBox="0 0 25 24" fill="none" xmlns="http://www.w3.org/2000/svg">
<path d="M16.3999 14C17.6884 14.0001 18.9271 14.4975 19.8577 15.3887C20.7883 16.2798 21.339 17.4958 21.3949 18.783L21.3999 19V20C21.4001 20.5046 21.2095 20.9906 20.8664 21.3605C20.5233 21.7305 20.0531 21.9572 19.5499 21.995L19.3999 22H5.3999C4.89533 22.0002 4.40934 21.8096 4.03935 21.4665C3.66937 21.1234 3.44275 20.6532 3.4049 20.15L3.3999 20V19C3.39998 17.7115 3.89744 16.4728 4.78856 15.5422C5.67968 14.6116 6.89565 14.0609 8.1829 14.005L8.3999 14H16.3999ZM12.3999 2C13.726 2 14.9978 2.52678 15.9354 3.46447C16.8731 4.40215 17.3999 5.67392 17.3999 7C17.3999 8.32608 16.8731 9.59785 15.9354 10.5355C14.9978 11.4732 13.726 12 12.3999 12C11.0738 12 9.80205 11.4732 8.86437 10.5355C7.92669 9.59785 7.3999 8.32608 7.3999 7C7.3999 5.67392 7.92669 4.40215 8.86437 3.46447C9.80205 2.52678 11.0738 2 12.3999 2Z" fill="#D52B00"/>
</svg>
